<mxfile host="app.diagrams.net" modified="2024-04-23T19:57:54.555Z" agent="Mozilla/5.0 (Macintosh; Intel Mac OS X 10_15_7) AppleWebKit/537.36 (KHTML, like Gecko) Chrome/123.0.0.0 Safari/537.36" version="24.2.8" etag="T4Ynz1BdapLlgDDDv2ub" type="github">
  <diagram name="Page-1" id="IZi9V1dN9H4gK8OcsK_K">
    <mxGraphModel>
      <root>
        <mxCell id="0" />
        <mxCell id="1" parent="0" />
      </root>
    </mxGraphModel>
  </diagram>
</mxfile>
